<?xml version="1.0" encoding="UTF-8" standalone="no"?><svg xmlns="http://www.w3.org/2000/svg" xmlns:xlink="http://www.w3.org/1999/xlink" clip-rule="evenodd" stroke-miterlimit="10" viewBox="0 0 869 149"><desc>SVG generated by Keynote</desc><defs></defs><g transform="matrix(1.00, 0.00, -0.00, -1.00, 0.0, 149.0)"><text xml:space="preserve" font-family="Menlo-Regular,Menlo" font-size="32.0" fill="#C82505" transform="matrix(1.00, 0.00, -0.00, -1.00, 1.4, 123.2)">S</text><text xml:space="preserve" font-family="Menlo-Regular,Menlo" font-size="32.0" fill="#C82505" transform="matrix(1.00, 0.00, -0.00, -1.00, 20.7, 123.2)">E</text><text xml:space="preserve" font-family="Menlo-Regular,Menlo" font-size="32.0" fill="#C82505" transform="matrix(1.00, 0.00, -0.00, -1.00, 39.9, 123.2)">L</text><text xml:space="preserve" font-family="Menlo-Regular,Menlo" font-size="32.0" fill="#C82505" transform="matrix(1.00, 0.00, -0.00, -1.00, 59.2, 123.2)">E</text><text xml:space="preserve" font-family="Menlo-Regular,Menlo" font-size="32.0" fill="#C82505" transform="matrix(1.00, 0.00, -0.00, -1.00, 78.5, 123.2)">C</text><text xml:space="preserve" font-family="Menlo-Regular,Menlo" font-size="32.0" fill="#C82505" transform="matrix(1.00, 0.00, -0.00, -1.00, 97.7, 123.2)">T</text><text xml:space="preserve" font-family="Menlo-Regular,Menlo" font-size="32.0" fill="#000000" transform="matrix(1.00, 0.00, -0.00, -1.00, 117.0, 123.2)"> </text><text xml:space="preserve" font-family="Menlo-Regular,Menlo" font-size="32.0" fill="#000000" transform="matrix(1.00, 0.00, -0.00, -1.00, 136.3, 123.2)">s</text><text xml:space="preserve" font-family="Menlo-Regular,Menlo" font-size="32.0" fill="#000000" transform="matrix(1.00, 0.00, -0.00, -1.00, 155.5, 123.2)">u</text><text xml:space="preserve" font-family="Menlo-Regular,Menlo" font-size="32.0" fill="#000000" transform="matrix(1.00, 0.00, -0.00, -1.00, 174.8, 123.2)">p</text><text xml:space="preserve" font-family="Menlo-Regular,Menlo" font-size="32.0" fill="#000000" transform="matrix(1.00, 0.00, -0.00, -1.00, 194.1, 123.2)">e</text><text xml:space="preserve" font-family="Menlo-Regular,Menlo" font-size="32.0" fill="#000000" transform="matrix(1.00, 0.00, -0.00, -1.00, 213.3, 123.2)">r</text><text xml:space="preserve" font-family="Menlo-Regular,Menlo" font-size="32.0" fill="#000000" transform="matrix(1.00, 0.00, -0.00, -1.00, 232.6, 123.2)">h</text><text xml:space="preserve" font-family="Menlo-Regular,Menlo" font-size="32.0" fill="#000000" transform="matrix(1.00, 0.00, -0.00, -1.00, 251.9, 123.2)">e</text><text xml:space="preserve" font-family="Menlo-Regular,Menlo" font-size="32.0" fill="#000000" transform="matrix(1.00, 0.00, -0.00, -1.00, 271.1, 123.2)">r</text><text xml:space="preserve" font-family="Menlo-Regular,Menlo" font-size="32.0" fill="#000000" transform="matrix(1.00, 0.00, -0.00, -1.00, 290.4, 123.2)">o</text><text xml:space="preserve" font-family="Menlo-Regular,Menlo" font-size="32.0" fill="#000000" transform="matrix(1.00, 0.00, -0.00, -1.00, 309.7, 123.2)">.</text><text xml:space="preserve" font-family="Menlo-Regular,Menlo" font-size="32.0" fill="#000000" transform="matrix(1.00, 0.00, -0.00, -1.00, 328.9, 123.2)">n</text><text xml:space="preserve" font-family="Menlo-Regular,Menlo" font-size="32.0" fill="#000000" transform="matrix(1.00, 0.00, -0.00, -1.00, 348.2, 123.2)">a</text><text xml:space="preserve" font-family="Menlo-Regular,Menlo" font-size="32.0" fill="#000000" transform="matrix(1.00, 0.00, -0.00, -1.00, 367.5, 123.2)">m</text><text xml:space="preserve" font-family="Menlo-Regular,Menlo" font-size="32.0" fill="#000000" transform="matrix(1.00, 0.00, -0.00, -1.00, 386.7, 123.2)">e</text><text xml:space="preserve" font-family="Menlo-Regular,Menlo" font-size="32.0" fill="#000000" transform="matrix(1.00, 0.00, -0.00, -1.00, 406.0, 123.2)"> </text><text xml:space="preserve" font-family="Menlo-Regular,Menlo" font-size="32.0" fill="#C82505" transform="matrix(1.00, 0.00, -0.00, -1.00, 1.4, 85.2)">F</text><text xml:space="preserve" font-family="Menlo-Regular,Menlo" font-size="32.0" fill="#C82505" transform="matrix(1.00, 0.00, -0.00, -1.00, 20.7, 85.2)">R</text><text xml:space="preserve" font-family="Menlo-Regular,Menlo" font-size="32.0" fill="#C82505" transform="matrix(1.00, 0.00, -0.00, -1.00, 39.9, 85.2)">O</text><text xml:space="preserve" font-family="Menlo-Regular,Menlo" font-size="32.0" fill="#C82505" transform="matrix(1.00, 0.00, -0.00, -1.00, 59.2, 85.2)">M</text><text xml:space="preserve" font-family="Menlo-Regular,Menlo" font-size="32.0" fill="#000000" transform="matrix(1.00, 0.00, -0.00, -1.00, 78.5, 85.2)"> </text><text xml:space="preserve" font-family="Menlo-Regular,Menlo" font-size="32.0" fill="#000000" transform="matrix(1.00, 0.00, -0.00, -1.00, 97.7, 85.2)"> </text><text xml:space="preserve" font-family="Menlo-Regular,Menlo" font-size="32.0" fill="#000000" transform="matrix(1.00, 0.00, -0.00, -1.00, 117.0, 85.2)"> </text><text xml:space="preserve" font-family="Menlo-Regular,Menlo" font-size="32.0" fill="#000000" transform="matrix(1.00, 0.00, -0.00, -1.00, 136.3, 85.2)">c</text><text xml:space="preserve" font-family="Menlo-Regular,Menlo" font-size="32.0" fill="#000000" transform="matrix(1.00, 0.00, -0.00, -1.00, 155.5, 85.2)">i</text><text xml:space="preserve" font-family="Menlo-Regular,Menlo" font-size="32.0" fill="#000000" transform="matrix(1.00, 0.00, -0.00, -1.00, 174.8, 85.2)">t</text><text xml:space="preserve" font-family="Menlo-Regular,Menlo" font-size="32.0" fill="#000000" transform="matrix(1.00, 0.00, -0.00, -1.00, 194.1, 85.2)">y</text><text xml:space="preserve" font-family="Menlo-Regular,Menlo" font-size="32.0" fill="#000000" transform="matrix(1.00, 0.00, -0.00, -1.00, 213.3, 85.2)">,</text><text xml:space="preserve" font-family="Menlo-Regular,Menlo" font-size="32.0" fill="#000000" transform="matrix(1.00, 0.00, -0.00, -1.00, 232.6, 85.2)"> </text><text xml:space="preserve" font-family="Menlo-Regular,Menlo" font-size="32.0" fill="#000000" transform="matrix(1.00, 0.00, -0.00, -1.00, 251.9, 85.2)">s</text><text xml:space="preserve" font-family="Menlo-Regular,Menlo" font-size="32.0" fill="#000000" transform="matrix(1.00, 0.00, -0.00, -1.00, 271.1, 85.2)">u</text><text xml:space="preserve" font-family="Menlo-Regular,Menlo" font-size="32.0" fill="#000000" transform="matrix(1.00, 0.00, -0.00, -1.00, 290.4, 85.2)">p</text><text xml:space="preserve" font-family="Menlo-Regular,Menlo" font-size="32.0" fill="#000000" transform="matrix(1.00, 0.00, -0.00, -1.00, 309.7, 85.2)">e</text><text xml:space="preserve" font-family="Menlo-Regular,Menlo" font-size="32.0" fill="#000000" transform="matrix(1.00, 0.00, -0.00, -1.00, 328.9, 85.2)">r</text><text xml:space="preserve" font-family="Menlo-Regular,Menlo" font-size="32.0" fill="#000000" transform="matrix(1.00, 0.00, -0.00, -1.00, 348.2, 85.2)">h</text><text xml:space="preserve" font-family="Menlo-Regular,Menlo" font-size="32.0" fill="#000000" transform="matrix(1.00, 0.00, -0.00, -1.00, 367.5, 85.2)">e</text><text xml:space="preserve" font-family="Menlo-Regular,Menlo" font-size="32.0" fill="#000000" transform="matrix(1.00, 0.00, -0.00, -1.00, 386.7, 85.2)">r</text><text xml:space="preserve" font-family="Menlo-Regular,Menlo" font-size="32.0" fill="#000000" transform="matrix(1.00, 0.00, -0.00, -1.00, 406.0, 85.2)">o</text><text xml:space="preserve" font-family="Menlo-Regular,Menlo" font-size="32.0" fill="#000000" transform="matrix(1.00, 0.00, -0.00, -1.00, 425.3, 85.2)"> </text><text xml:space="preserve" font-family="Menlo-Regular,Menlo" font-size="32.0" fill="#C82505" transform="matrix(1.00, 0.00, -0.00, -1.00, 1.4, 47.2)">W</text><text xml:space="preserve" font-family="Menlo-Regular,Menlo" font-size="32.0" fill="#C82505" transform="matrix(1.00, 0.00, -0.00, -1.00, 20.7, 47.2)">H</text><text xml:space="preserve" font-family="Menlo-Regular,Menlo" font-size="32.0" fill="#C82505" transform="matrix(1.00, 0.00, -0.00, -1.00, 39.9, 47.2)">E</text><text xml:space="preserve" font-family="Menlo-Regular,Menlo" font-size="32.0" fill="#C82505" transform="matrix(1.00, 0.00, -0.00, -1.00, 59.2, 47.2)">R</text><text xml:space="preserve" font-family="Menlo-Regular,Menlo" font-size="32.0" fill="#C82505" transform="matrix(1.00, 0.00, -0.00, -1.00, 78.5, 47.2)">E</text><text xml:space="preserve" font-family="Menlo-Regular,Menlo" font-size="32.0" fill="#000000" transform="matrix(1.00, 0.00, -0.00, -1.00, 97.7, 47.2)"> </text><text xml:space="preserve" font-family="Menlo-Regular,Menlo" font-size="32.0" fill="#000000" transform="matrix(1.00, 0.00, -0.00, -1.00, 117.0, 47.2)"> </text><text xml:space="preserve" font-family="Menlo-Regular,Menlo" font-size="32.0" fill="#0264C0" transform="matrix(1.00, 0.00, -0.00, -1.00, 136.3, 47.2)">S</text><text xml:space="preserve" font-family="Menlo-Regular,Menlo" font-size="32.0" fill="#0264C0" transform="matrix(1.00, 0.00, -0.00, -1.00, 155.5, 47.2)">T</text><text xml:space="preserve" font-family="Menlo-Regular,Menlo" font-size="32.0" fill="#0264C0" transform="matrix(1.00, 0.00, -0.00, -1.00, 174.8, 47.2)">_</text><text xml:space="preserve" font-family="Menlo-Regular,Menlo" font-size="32.0" fill="#0264C0" transform="matrix(1.00, 0.00, -0.00, -1.00, 194.1, 47.2)">C</text><text xml:space="preserve" font-family="Menlo-Regular,Menlo" font-size="32.0" fill="#0264C0" transform="matrix(1.00, 0.00, -0.00, -1.00, 213.3, 47.2)">o</text><text xml:space="preserve" font-family="Menlo-Regular,Menlo" font-size="32.0" fill="#0264C0" transform="matrix(1.00, 0.00, -0.00, -1.00, 232.6, 47.2)">n</text><text xml:space="preserve" font-family="Menlo-Regular,Menlo" font-size="32.0" fill="#0264C0" transform="matrix(1.00, 0.00, -0.00, -1.00, 251.9, 47.2)">t</text><text xml:space="preserve" font-family="Menlo-Regular,Menlo" font-size="32.0" fill="#0264C0" transform="matrix(1.00, 0.00, -0.00, -1.00, 271.1, 47.2)">a</text><text xml:space="preserve" font-family="Menlo-Regular,Menlo" font-size="32.0" fill="#0264C0" transform="matrix(1.00, 0.00, -0.00, -1.00, 290.4, 47.2)">i</text><text xml:space="preserve" font-family="Menlo-Regular,Menlo" font-size="32.0" fill="#0264C0" transform="matrix(1.00, 0.00, -0.00, -1.00, 309.7, 47.2)">n</text><text xml:space="preserve" font-family="Menlo-Regular,Menlo" font-size="32.0" fill="#0264C0" transform="matrix(1.00, 0.00, -0.00, -1.00, 328.9, 47.2)">s</text><text xml:space="preserve" font-family="Menlo-Regular,Menlo" font-size="32.0" fill="#0264C0" transform="matrix(1.00, 0.00, -0.00, -1.00, 348.2, 47.2)">(</text><text xml:space="preserve" font-family="Menlo-Regular,Menlo" font-size="32.0" fill="#0264C0" transform="matrix(1.00, 0.00, -0.00, -1.00, 367.5, 47.2)">c</text><text xml:space="preserve" font-family="Menlo-Regular,Menlo" font-size="32.0" fill="#0264C0" transform="matrix(1.00, 0.00, -0.00, -1.00, 386.7, 47.2)">i</text><text xml:space="preserve" font-family="Menlo-Regular,Menlo" font-size="32.0" fill="#0264C0" transform="matrix(1.00, 0.00, -0.00, -1.00, 406.0, 47.2)">t</text><text xml:space="preserve" font-family="Menlo-Regular,Menlo" font-size="32.0" fill="#0264C0" transform="matrix(1.00, 0.00, -0.00, -1.00, 425.3, 47.2)">y</text><text xml:space="preserve" font-family="Menlo-Regular,Menlo" font-size="32.0" fill="#0264C0" transform="matrix(1.00, 0.00, -0.00, -1.00, 444.6, 47.2)">.</text><text xml:space="preserve" font-family="Menlo-Bold,Menlo" font-weight="bold" font-size="32.0" fill="#0264C0" transform="matrix(1.00, 0.00, -0.00, -1.00, 463.8, 47.2)">g</text><text xml:space="preserve" font-family="Menlo-Bold,Menlo" font-weight="bold" font-size="32.0" fill="#0264C0" transform="matrix(1.00, 0.00, -0.00, -1.00, 483.0, 47.2)">e</text><text xml:space="preserve" font-family="Menlo-Bold,Menlo" font-weight="bold" font-size="32.0" fill="#0264C0" transform="matrix(1.00, 0.00, -0.00, -1.00, 502.3, 47.2)">o</text><text xml:space="preserve" font-family="Menlo-Bold,Menlo" font-weight="bold" font-size="32.0" fill="#0264C0" transform="matrix(1.00, 0.00, -0.00, -1.00, 521.6, 47.2)">m</text><text xml:space="preserve" font-family="Menlo-Regular,Menlo" font-size="32.0" fill="#0264C0" transform="matrix(1.00, 0.00, -0.00, -1.00, 540.8, 47.2)">,</text><text xml:space="preserve" font-family="Menlo-Regular,Menlo" font-size="32.0" fill="#0264C0" transform="matrix(1.00, 0.00, -0.00, -1.00, 560.1, 47.2)"> </text><text xml:space="preserve" font-family="Menlo-Regular,Menlo" font-size="32.0" fill="#0264C0" transform="matrix(1.00, 0.00, -0.00, -1.00, 579.4, 47.2)">s</text><text xml:space="preserve" font-family="Menlo-Regular,Menlo" font-size="32.0" fill="#0264C0" transform="matrix(1.00, 0.00, -0.00, -1.00, 598.6, 47.2)">u</text><text xml:space="preserve" font-family="Menlo-Regular,Menlo" font-size="32.0" fill="#0264C0" transform="matrix(1.00, 0.00, -0.00, -1.00, 617.9, 47.2)">p</text><text xml:space="preserve" font-family="Menlo-Regular,Menlo" font-size="32.0" fill="#0264C0" transform="matrix(1.00, 0.00, -0.00, -1.00, 637.2, 47.2)">e</text><text xml:space="preserve" font-family="Menlo-Regular,Menlo" font-size="32.0" fill="#0264C0" transform="matrix(1.00, 0.00, -0.00, -1.00, 656.4, 47.2)">r</text><text xml:space="preserve" font-family="Menlo-Regular,Menlo" font-size="32.0" fill="#0264C0" transform="matrix(1.00, 0.00, -0.00, -1.00, 675.7, 47.2)">h</text><text xml:space="preserve" font-family="Menlo-Regular,Menlo" font-size="32.0" fill="#0264C0" transform="matrix(1.00, 0.00, -0.00, -1.00, 695.0, 47.2)">e</text><text xml:space="preserve" font-family="Menlo-Regular,Menlo" font-size="32.0" fill="#0264C0" transform="matrix(1.00, 0.00, -0.00, -1.00, 714.2, 47.2)">r</text><text xml:space="preserve" font-family="Menlo-Regular,Menlo" font-size="32.0" fill="#0264C0" transform="matrix(1.00, 0.00, -0.00, -1.00, 733.5, 47.2)">o</text><text xml:space="preserve" font-family="Menlo-Regular,Menlo" font-size="32.0" fill="#0264C0" transform="matrix(1.00, 0.00, -0.00, -1.00, 752.8, 47.2)">.</text><text xml:space="preserve" font-family="Menlo-Bold,Menlo" font-weight="bold" font-size="32.0" fill="#0264C0" transform="matrix(1.00, 0.00, -0.00, -1.00, 772.0, 47.2)">g</text><text xml:space="preserve" font-family="Menlo-Bold,Menlo" font-weight="bold" font-size="32.0" fill="#0264C0" transform="matrix(1.00, 0.00, -0.00, -1.00, 791.3, 47.2)">e</text><text xml:space="preserve" font-family="Menlo-Bold,Menlo" font-weight="bold" font-size="32.0" fill="#0264C0" transform="matrix(1.00, 0.00, -0.00, -1.00, 810.6, 47.2)">o</text><text xml:space="preserve" font-family="Menlo-Bold,Menlo" font-weight="bold" font-size="32.0" fill="#0264C0" transform="matrix(1.00, 0.00, -0.00, -1.00, 829.8, 47.2)">m</text><text xml:space="preserve" font-family="Menlo-Regular,Menlo" font-size="32.0" fill="#0264C0" transform="matrix(1.00, 0.00, -0.00, -1.00, 849.1, 47.2)">)</text><text xml:space="preserve" font-family="Menlo-Regular,Menlo" font-size="32.0" fill="#000000" transform="matrix(1.00, 0.00, -0.00, -1.00, 868.3, 47.2)"> </text><text xml:space="preserve" font-family="Menlo-Regular,Menlo" font-size="32.0" fill="#C82505" transform="matrix(1.00, 0.00, -0.00, -1.00, 1.4, 9.2)">A</text><text xml:space="preserve" font-family="Menlo-Regular,Menlo" font-size="32.0" fill="#C82505" transform="matrix(1.00, 0.00, -0.00, -1.00, 20.7, 9.2)">N</text><text xml:space="preserve" font-family="Menlo-Regular,Menlo" font-size="32.0" fill="#C82505" transform="matrix(1.00, 0.00, -0.00, -1.00, 39.9, 9.2)">D</text><text xml:space="preserve" font-family="Menlo-Regular,Menlo" font-size="32.0" fill="#000000" transform="matrix(1.00, 0.00, -0.00, -1.00, 59.2, 9.2)"> </text><text xml:space="preserve" font-family="Menlo-Regular,Menlo" font-size="32.0" fill="#000000" transform="matrix(1.00, 0.00, -0.00, -1.00, 78.5, 9.2)"> </text><text xml:space="preserve" font-family="Menlo-Regular,Menlo" font-size="32.0" fill="#000000" transform="matrix(1.00, 0.00, -0.00, -1.00, 97.7, 9.2)"> </text><text xml:space="preserve" font-family="Menlo-Regular,Menlo" font-size="32.0" fill="#000000" transform="matrix(1.00, 0.00, -0.00, -1.00, 117.0, 9.2)"> </text><text xml:space="preserve" font-family="Menlo-Regular,Menlo" font-size="32.0" fill="#000000" transform="matrix(1.00, 0.00, -0.00, -1.00, 136.3, 9.2)">c</text><text xml:space="preserve" font-family="Menlo-Regular,Menlo" font-size="32.0" fill="#000000" transform="matrix(1.00, 0.00, -0.00, -1.00, 155.5, 9.2)">i</text><text xml:space="preserve" font-family="Menlo-Regular,Menlo" font-size="32.0" fill="#000000" transform="matrix(1.00, 0.00, -0.00, -1.00, 174.8, 9.2)">t</text><text xml:space="preserve" font-family="Menlo-Regular,Menlo" font-size="32.0" fill="#000000" transform="matrix(1.00, 0.00, -0.00, -1.00, 194.1, 9.2)">y</text><text xml:space="preserve" font-family="Menlo-Regular,Menlo" font-size="32.0" fill="#000000" transform="matrix(1.00, 0.00, -0.00, -1.00, 213.3, 9.2)">.</text><text xml:space="preserve" font-family="Menlo-Regular,Menlo" font-size="32.0" fill="#000000" transform="matrix(1.00, 0.00, -0.00, -1.00, 232.6, 9.2)">n</text><text xml:space="preserve" font-family="Menlo-Regular,Menlo" font-size="32.0" fill="#000000" transform="matrix(1.00, 0.00, -0.00, -1.00, 251.9, 9.2)">a</text><text xml:space="preserve" font-family="Menlo-Regular,Menlo" font-size="32.0" fill="#000000" transform="matrix(1.00, 0.00, -0.00, -1.00, 271.1, 9.2)">m</text><text xml:space="preserve" font-family="Menlo-Regular,Menlo" font-size="32.0" fill="#000000" transform="matrix(1.00, 0.00, -0.00, -1.00, 290.4, 9.2)">e</text><text xml:space="preserve" font-family="Menlo-Regular,Menlo" font-size="32.0" fill="#000000" transform="matrix(1.00, 0.00, -0.00, -1.00, 309.7, 9.2)"> </text><text xml:space="preserve" font-family="Menlo-Regular,Menlo" font-size="32.0" fill="#000000" transform="matrix(1.00, 0.00, -0.00, -1.00, 328.9, 9.2)">=</text><text xml:space="preserve" font-family="Menlo-Regular,Menlo" font-size="32.0" fill="#000000" transform="matrix(1.00, 0.00, -0.00, -1.00, 348.2, 9.2)"> </text><text xml:space="preserve" font-family="Menlo-Regular,Menlo" font-size="32.0" fill="#000000" transform="matrix(1.00, 0.00, -0.00, -1.00, 367.5, 9.2)">'</text><text xml:space="preserve" font-family="Menlo-Regular,Menlo" font-size="32.0" fill="#000000" transform="matrix(1.00, 0.00, -0.00, -1.00, 386.7, 9.2)">G</text><text xml:space="preserve" font-family="Menlo-Regular,Menlo" font-size="32.0" fill="#000000" transform="matrix(1.00, 0.00, -0.00, -1.00, 406.0, 9.2)">o</text><text xml:space="preserve" font-family="Menlo-Regular,Menlo" font-size="32.0" fill="#000000" transform="matrix(1.00, 0.00, -0.00, -1.00, 425.3, 9.2)">t</text><text xml:space="preserve" font-family="Menlo-Regular,Menlo" font-size="32.0" fill="#000000" transform="matrix(1.00, 0.00, -0.00, -1.00, 444.6, 9.2)">h</text><text xml:space="preserve" font-family="Menlo-Regular,Menlo" font-size="32.0" fill="#000000" transform="matrix(1.00, 0.00, -0.00, -1.00, 463.8, 9.2)">a</text><text xml:space="preserve" font-family="Menlo-Regular,Menlo" font-size="32.0" fill="#000000" transform="matrix(1.00, 0.00, -0.00, -1.00, 483.1, 9.2)">m</text><text xml:space="preserve" font-family="Menlo-Regular,Menlo" font-size="32.0" fill="#000000" transform="matrix(1.00, 0.00, -0.00, -1.00, 502.4, 9.2)">'</text><text xml:space="preserve" font-family="Menlo-Regular,Menlo" font-size="32.0" fill="#000000" transform="matrix(1.00, 0.00, -0.00, -1.00, 521.6, 9.2)">;</text></g></svg>